PathFileType	4	(X/Y/Z)	C:\Users\WrightLab\Desktop\Jo\P3_3.trc
DataRate	CameraRate	NumFrames	NumMarkers	Units	OrigDataRate	OrigDataStartFrame	OrigNumFrames
100.00	100.00	       14	19	mm	100.00	365	       729
Frame#	Time	Headset_Front			Headset_Back			Headset_Left			Headset_Right			Left_Shoulder			Right_Shoulder			Sternum			C7			Left Elbow			Right Elbow			Left Wrist			Right Wrist			Left ASIS			Right ASIS			S2			Left Knee			Right Knee			Left Ankle			Right Ankle			
		X1	Y1	Z1	X2	Y2	Z2	X3	Y3	Z3	X4	Y4	Z4	X5	Y5	Z5	X6	Y6	Z6	X7	Y7	Z7	X8	Y8	Z8	X9	Y9	Z9	X10	Y10	Z10	X11	Y11	Z11	X12	Y12	Z12	X13	Y13	Z13	X14	Y14	Z14	X15	Y15	Z15	X16	Y16	Z16	X17	Y17	Z17	X18	Y18	Z18	X19	Y19	Z19	

365	3.640	-595.76123	1406.50098	-414.77808	-702.92352	1617.57910	-220.97969	-757.44025	1523.75488	-344.39279	-540.54047	1481.06189	-293.98425	-883.39056	1327.99829	-211.67737	-535.23889	1328.87195	-150.12018	-694.45825	1209.03369	-310.40628	-710.86194	1381.59973	-135.19998	-965.27808	999.98706	-185.25455	-450.92523	994.21722	-89.59946	-966.98474	809.30658	-275.22192	-357.35242	815.89008	-199.04980	-804.49817	849.33575	-293.37720				-691.20496	928.05670	-75.95641	-816.68646	433.35684	-280.15805	-575.42889	408.46173	-281.77496	-816.72137	105.04871	-228.52269	-572.88354	217.55717	-1.04057	
366	3.650	-596.37122	1406.57593	-420.98480	-703.67603	1617.65332	-230.25175	-757.46088	1523.99768	-353.97824	-541.24243	1481.94348	-302.27518	-884.35022	1327.86902	-222.19341	-536.43042	1328.50061	-156.80617	-694.25208	1209.21118	-319.03217	-712.78778	1382.57056	-143.21648	-967.01331	999.90289	-198.55936	-452.98892	994.23236	-95.18330	-967.66779	810.91766	-289.71808	-361.26892	814.36688	-202.99092	-804.33777	849.15564	-301.13251	-552.89038	846.92413	-288.87479	-693.33783	928.41895	-82.94582	-816.78137	433.39682	-284.54059	-574.54700	411.67377	-300.59308	-816.67926	104.96473	-229.06618	-575.99286	221.45862	-19.34803	
367	3.660	-596.06317	1406.22375	-429.47925	-704.07654	1618.48596	-239.84140	-757.49084	1524.01392	-363.29752	-539.55536	1482.73291	-311.30658	-885.21069	1328.17676	-232.99738	-537.95563	1329.23438	-164.10248	-694.04431	1208.49744	-326.90884	-714.78680	1382.96606	-152.62363	-967.96680	1000.00360	-211.56224	-456.07068	994.67767	-100.58557	-967.30750	811.30817	-303.66336	-365.12405	812.89972	-206.73537	-804.55817	849.06537	-310.26038				-695.65186	929.15851	-90.49355	-816.79272	433.25693	-288.69608	-573.26514	414.83377	-318.02448	-816.66486	104.97216	-229.54556	-579.69519	222.96085	-37.77620	
368	3.670	-595.71747	1405.77441	-437.46570	-703.84235	1618.76074	-248.89362	-757.16754	1524.06799	-372.42148	-541.98395	1480.50549	-317.51056	-885.90912	1328.51074	-243.26306	-539.49414	1329.35767	-171.61964	-693.80151	1208.32275	-335.06412	-716.29993	1383.85339	-160.71588	-969.31073	1000.74927	-224.00937	-458.64465	994.94165	-106.00053	-967.76849	812.11023	-317.55804	-369.14136	811.85687	-209.52187	-803.51782	848.65808	-317.79886	-551.82007	848.68451	-297.52853	-697.37677	929.93378	-97.75148	-816.87653	433.17557	-292.56586	-572.58453	418.76840	-335.51553	-816.69403	105.05442	-230.11082	-582.62695	224.36261	-57.49916	
369	3.680	-595.18463	1405.24683	-446.32159	-704.44458	1619.40796	-259.12433	-756.79535	1524.05811	-382.04578	-541.85907	1480.06799	-326.47272	-886.42938	1329.00171	-253.20428	-540.78955	1330.34265	-178.10089	-693.18951	1208.38416	-342.28864	-717.71368	1384.67700	-170.01349	-970.49121	1001.00238	-236.73334	-461.46143	995.06647	-112.09427	-967.41333	813.32056	-330.99921	-373.05377	810.73065	-213.17960	-803.46887	848.73694	-326.11700				-699.23090	932.34760	-103.52910	-816.95496	432.79233	-295.47913	-571.04602	423.35394	-352.61008	-816.10602	105.50318	-231.75011	-585.35138	224.55109	-76.92957	
370	3.690	-593.68195	1404.64819	-455.92780	-703.82758	1618.97168	-267.89258	-756.23578	1524.12500	-391.60297	-539.35675	1481.38196	-334.95706	-886.76172	1329.15454	-263.92377	-541.82965	1330.92676	-185.84465	-693.29828	1208.37244	-350.25327	-718.71497	1385.43298	-178.15219	-970.95227	1001.51331	-249.86789	-464.79971	995.83148	-117.81819	-967.21729	815.00983	-345.91690	-376.19662	810.37292	-217.37225	-803.00500	849.36755	-334.66220				-701.29736	931.99225	-112.68276	-817.17316	432.43063	-298.81177	-570.29944	428.06693	-368.96832	-816.22717	106.07314	-232.91017	-587.83099	222.74353	-96.33031	
371	3.700	-593.30096	1403.58752	-463.96109	-704.43982	1619.35254	-277.52277	-755.56714	1523.78882	-400.78070	-541.03436	1480.36597	-341.99594	-887.40826	1330.28333	-273.75229	-543.21558	1331.55493	-192.03250	-693.04785	1208.42163	-358.14719	-719.82623	1385.66357	-186.15659	-972.08685	1002.46606	-262.25314	-467.16895	997.16663	-122.95845	-967.27795	816.67151	-360.06348	-379.99530	810.08441	-221.98230	-802.78113	850.11755	-343.47626	-550.41211	853.20386	-321.87854	-702.25604	933.46606	-119.53334	-817.42853	431.92480	-301.15448	-568.73834	431.88132	-384.18011	-815.92236	106.79705	-234.55208	-589.74524	221.26624	-116.91102	
372	3.710	-592.82153	1402.31323	-469.00769	-703.58331	1618.98682	-286.70563	-754.70367	1523.53357	-410.53513	-542.04620	1478.68140	-350.02274	-887.60083	1330.43225	-283.03549	-544.36346	1332.19543	-199.04601	-692.79651	1208.24597	-365.81229	-721.67017	1387.04541	-196.02238	-972.22150	1002.93378	-275.18887	-469.64969	996.99316	-128.22931	-966.60883	818.04980	-373.68781	-383.53574	809.92102	-226.96356	-802.30121	850.76459	-350.99689	-550.64240	854.68549	-326.45685	-703.46661	933.85333	-128.51749	-817.41766	431.89777	-304.03638	-566.72186	435.63614	-398.54184	-815.80267	106.79144	-234.82788	-592.18280	218.50720	-138.16234	
373	3.720	-591.64929	1401.78516	-478.25092	-704.24701	1620.15454	-297.35596	-753.70325	1523.05029	-420.04483	-540.07629	1478.86987	-357.27542	-887.75745	1330.91077	-293.05569	-545.23553	1332.77368	-206.73863	-692.52454	1208.48181	-373.48245	-722.93567	1387.13708	-204.24561	-972.91559	1004.06702	-287.50366	-472.67538	997.35883	-133.52866	-966.20850	819.94794	-388.17953	-386.60135	809.28546	-231.33501	-802.17200	851.29907	-359.43369	-551.41718	856.05951	-330.10754	-704.78131	934.53992	-135.09819	-817.44574	431.66284	-306.89978	-565.83606	439.47571	-413.05682	-815.77832	106.78996	-235.05232	-593.77277	213.45819	-160.58340	
374	3.730	-590.37799	1400.43555	-485.09564	-703.85577	1619.93958	-307.04004	-752.61560	1522.39038	-429.30536	-540.25159	1478.11548	-365.93619	-888.13824	1331.95349	-303.10129	-546.10748	1333.25366	-212.57265	-692.01282	1208.40759	-380.71686	-723.34833	1387.13916	-212.97197	-973.23340	1004.73315	-299.44873	-475.24741	998.25806	-138.80522	-965.72662	821.59137	-402.00964	-389.45663	809.25574	-235.94676	-801.35956	851.80798	-367.17343				-706.92609	935.13605	-143.46533	-817.53418	431.39096	-309.50476	-563.78693	442.72226	-426.41226	-815.75458	106.80569	-235.24031	-595.10016	208.41644	-182.02638	
375	3.740	-588.02454	1399.70581	-495.85080	-703.34003	1619.67883	-316.40170	-751.37866	1521.88098	-439.67902	-536.71729	1477.94531	-374.03934	-887.70239	1332.22998	-311.57782	-547.16284	1333.37378	-220.51239	-691.80994	1209.12427	-388.75580	-724.70935	1388.44434	-221.44952	-973.64453	1005.31964	-311.63531	-478.26138	997.94342	-144.31189	-964.78894	823.07910	-415.71103	-391.79065	808.86682	-241.46535	-800.91541	852.36456	-375.02725	-550.74744	858.95441	-346.74493	-706.88055	934.83917	-150.27168	-817.62543	430.91641	-311.97501	-562.25391	446.11215	-439.09396	-815.59924	107.93735	-237.31873	-596.25946	202.94424	-204.62766	
376	3.750	-587.27423	1397.97241	-500.15723	-701.22339	1618.63135	-323.70300	-749.99481	1521.09021	-448.35953	-538.80341	1475.72400	-380.92828	-888.06018	1332.93738	-321.71890	-547.68512	1333.45898	-226.61148	-691.11646	1209.41638	-397.14557	-724.84229	1388.29089	-229.75060	-973.86475	1006.03967	-323.26300	-480.12378	997.59485	-150.42764	-964.55695	824.94049	-429.48764	-394.03369	808.77252	-245.70590	-800.56244	851.41071	-381.68332				-708.90771	935.13867	-158.31689	-817.46252	430.51486	-314.23120	-560.03741	449.68991	-451.72269	-815.48035	107.92619	-237.44725	-596.13416	195.48047	-226.30545	
377	3.760	-585.58118	1396.72900	-507.26300	-700.51471	1618.45276	-333.26840	-748.35931	1520.72485	-457.86526	-537.99622	1475.12988	-387.87808	-887.88452	1333.39197	-331.25543	-548.34119	1332.65027	-232.64500	-690.31189	1209.25244	-403.91370	-725.80908	1388.67334	-238.40926	-974.14056	1006.74933	-335.55017	-482.69974	998.15173	-155.68704	-963.46173	826.64130	-442.77853	-395.85797	808.70752	-251.05971	-799.60315	851.02661	-390.00623	-550.16541	860.54932	-359.58911	-709.42200	936.06409	-165.73769	-817.54236	429.86273	-317.05734	-557.99658	452.54343	-463.08420	-815.39520	107.92696	-237.57344	-595.22748	188.05296	-250.38289	
378	3.770	-583.95636	1395.74695	-515.33002	-699.79681	1618.34790	-343.06998	-746.76605	1520.09302	-466.99496	-536.63110	1474.93018	-397.08780	-887.71973	1333.74609	-340.23505	-548.88715	1332.77478	-239.44930	-689.63965	1209.23743	-412.27856	-725.91858	1389.17236	-247.32988	-973.91644	1006.77289	-346.87402	-484.25778	998.90649	-161.40930	-962.65887	828.34467	-456.56458	-398.07297	808.62225	-256.51508	-799.66443	850.08228	-396.93784				-710.07330	935.97583	-173.00961	-817.28186	429.67532	-319.54733	-555.83752	455.36481	-473.40390	-815.30499	107.91061	-237.70309	-594.76129	180.30125	-275.48758	
